<?xml version="1.0" encoding="UTF-8"?>
<!DOCTYPE svg PUBLIC "-//W3C//DTD SVG 1.1//EN" "http://www.w3.org/Graphics/SVG/1.1/DTD/svg11.dtd">
<!-- Creator: CorelDRAW X7 -->
<svg xmlns="http://www.w3.org/2000/svg" xml:space="preserve" width="0.872579in" height="0.872579in" version="1.1" style="shape-rendering:geometricPrecision; text-rendering:geometricPrecision; image-rendering:optimizeQuality; fill-rule:evenodd; clip-rule:evenodd"
viewBox="0 0 1348 1348"
 xmlns:xlink="http://www.w3.org/1999/xlink">
 <defs>
  <style type="text/css">
   <![CDATA[
    .str0 {stroke:#373435;stroke-width:10.732}
    .str2 {stroke:#373435;stroke-width:4.63594}
    .str1 {stroke:black;stroke-width:4.63594}
    .fil3 {fill:none}
    .fil1 {fill:blue}
    .fil4 {fill:red}
    .fil2 {fill:yellow}
    .fil0 {fill:white}
   ]]>
  </style>
 </defs>
 <g id="Layer_x0020_1">
  <metadata id="CorelCorpID_0Corel-Layer"/>
  <circle class="fil0 str0" cx="676" cy="672" r="667"/>
  <path class="fil1 str1" d="M674 3c371,0 672,301 672,671 0,371 -301,672 -672,672 -371,0 -672,-301 -672,-672 0,-370 301,-671 672,-671zm0 223c248,0 449,201 449,448 0,248 -201,449 -449,449 -248,0 -449,-201 -449,-449 0,-247 201,-448 449,-448z"/>
  <g id="_2529513964400">
   <polygon class="fil2 str1" points="1010,111 996,178 1054,211 987,218 973,285 946,223 878,230 929,185 901,123 960,157 "/>
   <polygon class="fil2 str1" points="1246,355 1201,405 1235,464 1173,436 1128,486 1135,419 1073,391 1139,378 1146,310 1180,369 "/>
   <polygon class="fil2 str1" points="1330,684 1265,705 1265,772 1226,717 1161,739 1201,684 1161,629 1226,650 1265,595 1265,663 "/>
   <polygon class="fil2 str1" points="1237,1010 1171,996 1137,1055 1130,987 1064,974 1126,946 1119,879 1164,929 1226,901 1192,960 "/>
   <polygon class="fil2 str1" points="994,1247 943,1202 885,1236 913,1174 862,1128 929,1136 957,1074 971,1140 1038,1147 980,1181 "/>
   <polygon class="fil2 str1" points="665,1330 644,1266 576,1266 631,1226 610,1162 665,1202 719,1162 698,1226 753,1266 685,1266 "/>
   <polygon class="fil2 str1" points="338,1238 352,1171 293,1138 361,1131 375,1064 402,1126 470,1119 419,1164 447,1226 388,1192 "/>
   <polygon class="fil2 str1" points="101,994 147,944 113,885 175,913 220,863 213,930 275,957 208,971 201,1039 168,980 "/>
   <polygon class="fil2 str1" points="18,665 83,644 83,577 122,632 187,610 147,665 187,720 122,699 83,754 83,686 "/>
   <polygon class="fil2 str1" points="111,339 177,353 211,294 218,361 284,375 222,403 229,470 184,420 122,448 156,389 "/>
   <polygon class="fil2 str1" points="354,102 404,147 463,113 435,175 486,221 418,213 391,275 377,209 310,202 368,168 "/>
   <polygon class="fil2 str1" points="683,19 704,83 772,83 717,123 738,187 683,147 628,187 649,123 595,83 662,83 "/>
  </g>
  <polygon class="fil3" points="345,588 350,604 368,604 353,615 359,631 345,621 330,631 336,615 322,604 339,604 "/>
  <path class="fil1" d="M705 672l-428 0 1 -27c0,-18 2,-35 5,-52l4 -3 14 11 -6 -17 15 -10 -18 0 -3 -10c10,-42 28,-82 51,-117l0 0 -5 17 14 -10 14 10 -5 -17 14 -10 -17 0 -3 -8c10,-13 20,-26 31,-38l6 4 -5 17 14 -10 14 10 -5 -17 14 -10 -18 0 -3 -10c12,-11 25,-22 38,-32l5 4 -5 17 14 -11 14 11 -5 -17 14 -10 -17 0 -2 -6c15,-9 31,-18 48,-26l-5 16 14 -11 14 11 -5 -17 14 -10 -4 0c40,-15 84,-23 129,-23l54 0 -10 401zm-242 -69l5 17 18 0 -14 10 5 17 -14 -11 -14 11 5 -17 -14 -10 17 0 6 -17zm-118 -90l5 17 18 0 -15 10 6 17 -14 -11 -15 11 6 -17 -14 -10 17 0 6 -17zm61 44l5 17 18 0 -14 10 5 17 -14 -11 -14 11 5 -17 -14 -10 18 0 5 -17zm165 46l5 17 18 0 -15 10 6 17 -14 -11 -15 11 6 -17 -14 -10 17 0 6 -17zm108 0l5 17 18 0 -15 10 6 17 -14 -11 -15 11 6 -17 -14 -10 17 0 6 -17zm-216 -90l5 17 18 0 -14 10 5 17 -14 -11 -14 11 5 -17 -14 -10 17 0 6 -17zm50 -53l6 17 18 0 -15 10 6 17 -15 -10 -14 10 6 -17 -15 -10 18 0 5 -17zm58 -44l5 17 18 0 -15 11 6 16 -14 -10 -15 10 6 -16 -14 -11 17 0 6 -17zm54 -48l5 17 18 0 -14 10 5 17 -14 -10 -14 10 5 -17 -14 -10 17 0 6 -17zm54 -43l5 16 18 0 -15 11 6 16 -14 -10 -15 10 6 -16 -14 -11 17 0 6 -16zm-334 278l5 17 18 0 -15 10 6 17 -14 -11 -15 11 6 -17 -14 -10 17 0 6 -17zm61 -139l5 17 18 0 -14 10 5 17 -14 -11 -14 11 5 -17 -14 -10 18 0 5 -17zm57 -48l5 17 18 0 -14 11 5 16 -14 -10 -14 10 5 -16 -14 -11 17 0 6 -17zm50 -48l6 17 18 0 -15 10 6 17 -15 -10 -14 10 6 -17 -15 -10 18 0 5 -17zm58 -43l5 16 18 0 -15 11 6 16 -14 -10 -15 10 6 -16 -14 -11 17 0 6 -16zm54 -47l5 17 18 0 -14 10 5 17 -14 -10 -14 10 5 -17 -14 -10 17 0 6 -17zm-112 279l6 17 18 0 -15 10 6 17 -15 -11 -14 11 6 -17 -15 -10 18 0 5 -17zm58 -49l5 17 18 0 -15 11 6 16 -14 -10 -15 10 6 -16 -14 -11 17 0 6 -17zm54 -48l5 17 18 0 -14 10 5 17 -14 -10 -14 10 5 -17 -14 -10 17 0 6 -17zm54 -44l5 17 18 0 -15 11 6 16 -14 -10 -15 10 6 -16 -14 -11 17 0 6 -17zm-54 143l5 17 18 0 -15 10 6 17 -14 -10 -15 10 6 -17 -14 -10 17 0 6 -17zm54 -46l5 17 18 0 -15 10 6 17 -14 -11 -15 11 6 -17 -14 -10 17 0 6 -17zm-290 -128c2,-1 3,-3 5,-4l-2 4 -3 0z"/>
  <g id="_2529513972784">
   <path class="fil4" d="M1061 543l-353 0 2 -72 319 0c13,23 24,47 32,72z"/>
   <path class="fil4" d="M1081 672l-376 0 2 -68 369 0c3,22 5,43 5,65 0,1 0,2 0,3z"/>
   <path class="fil4" d="M279 741l403 0c-5,1 -8,4 -10,9l-9 17c0,0 0,1 -1,1 -3,8 -7,15 -11,23 0,0 0,0 0,0l-14 -8c-6,-3 -14,-3 -20,1 -6,5 -9,12 -8,19l2 7 -313 0c-8,-22 -15,-45 -19,-69zm416 0l378 0 0 7c-4,21 -10,42 -17,62l-290 0 1 -6c2,-8 -1,-15 -7,-19 -6,-5 -14,-5 -20,-1l-14 7c0,0 0,0 0,0 -4,-7 -7,-15 -11,-23 -1,0 -1,-1 -1,-2l-9 -16c-2,-5 -6,-8 -10,-9z"/>
   <path class="fil4" d="M330 876l191 0 10 33c0,0 1,1 1,2l-6 4c-6,3 -9,9 -9,15 -1,5 1,10 4,14l-141 0c-19,-21 -36,-44 -50,-68zm526 0l168 0c-14,24 -31,47 -50,68l-118 0c3,-4 5,-9 4,-14 0,-6 -3,-12 -9,-15l-6 -4c0,-1 1,-2 1,-2l10 -33z"/>
   <path class="fil4 str2" d="M748 883l7 -8c0,0 0,0 0,0 4,-4 8,-8 12,-12l9 -11c1,-1 3,-2 5,-2 2,1 3,2 4,3l6 14c1,1 2,5 3,5 2,1 7,0 9,-1 6,-1 13,-3 19,-4l16 -4c2,0 4,0 5,2 1,1 2,3 1,5l-11 34c-1,3 -4,11 -3,13 0,1 2,2 3,3l12 7c1,1 2,2 2,4 0,2 0,3 -2,4l-10 9c-4,3 -8,6 -11,9 -9,7 -18,14 -27,21 -4,4 -8,7 -13,11 -4,3 -9,7 -13,11 -3,2 -4,2 -3,5 1,2 2,4 2,6l7 16c0,2 0,4 -1,6 -2,1 -3,2 -5,2l-17 -4c-4,-1 -8,-2 -11,-3 -8,-1 -15,-3 -22,-4 -2,0 -7,-1 -10,-1 -2,-1 -5,1 -5,4 -1,3 0,7 0,9 0,0 0,1 0,2 0,2 0,4 1,7l2 11c0,1 -1,3 -2,4 -1,1 -2,2 -4,2l-28 0c-1,0 -3,-1 -4,-2 -1,-1 -1,-3 -1,-4l2 -11c0,-2 0,-4 0,-6 1,-3 1,-8 1,-12 -1,-2 -3,-4 -6,-4 -3,0 -7,1 -9,1 -8,1 -15,3 -23,4 -4,1 -8,2 -12,3l-17 4c-2,0 -3,-1 -5,-2 -1,-2 -1,-4 -1,-6l6 -16c1,-1 3,-6 3,-8 0,-1 -3,-3 -4,-4 -4,-3 -8,-7 -12,-10 -4,-4 -9,-7 -13,-11 -9,-7 -18,-14 -27,-21 -3,-3 -7,-6 -11,-9l-10 -8c-2,-2 -2,-3 -2,-5 0,-2 1,-3 2,-4l12 -7c1,-1 3,-2 3,-3 1,-2 -3,-10 -3,-13l-11 -34c-1,-2 0,-4 1,-5 1,-2 3,-2 5,-2l16 4c6,1 13,3 19,4 2,1 7,2 9,1 1,0 2,-4 3,-5l6 -13c0,-2 2,-3 4,-3 1,-1 3,0 4,1l21 23c0,0 0,0 0,0l0 0c2,2 5,4 6,6 2,2 7,8 9,8 1,0 2,-1 2,-1 2,-2 0,-7 0,-9 -3,-14 -6,-27 -8,-41 -1,-6 -3,-11 -4,-17l-4 -20c0,-2 1,-4 3,-6 1,-1 4,-1 6,0l17 10c2,1 7,4 8,3 2,-1 6,-9 7,-11 4,-7 7,-15 11,-23 1,0 1,-1 1,-2l9 -16c0,-2 2,-3 4,-3 2,0 4,1 5,3l9 16c0,1 0,2 1,2 4,8 7,16 11,23 1,2 5,11 7,12 1,0 4,-2 5,-2 1,-1 2,-1 3,-2l17 -10c2,-1 4,-1 6,1 2,1 3,3 2,5l-3 20c-2,6 -3,11 -4,17 -2,13 -5,27 -8,40 0,2 1,5 3,6 2,1 5,1 6,-1z"/>
   <path class="fil4" d="M982 405l-271 0 2 -72 188 0c30,21 58,45 81,72z"/>
  </g>
 </g>
</svg>
